<svg width="59" height="59" viewBox="0 0 59 59" fill="none" xmlns="http://www.w3.org/2000/svg">
<rect x="1" y="1" width="57" height="57" rx="27.5" fill="#EEEEEE" stroke="white" stroke-width="2"/>
<mask id="path-2-inside-1_8_4348" fill="white">
<path d="M37 28H31V22C31 21.7348 30.8946 21.4804 30.7071 21.2929C30.5196 21.1054 30.2652 21 30 21C29.7348 21 29.4804 21.1054 29.2929 21.2929C29.1054 21.4804 29 21.7348 29 22V28H23C22.7348 28 22.4804 28.1054 22.2929 28.2929C22.1054 28.4804 22 28.7348 22 29C22 29.2652 22.1054 29.5196 22.2929 29.7071C22.4804 29.8946 22.7348 30 23 30H29V36C29 36.2652 29.1054 36.5196 29.2929 36.7071C29.4804 36.8946 29.7348 37 30 37C30.2652 37 30.5196 36.8946 30.7071 36.7071C30.8946 36.5196 31 36.2652 31 36V30H37C37.2652 30 37.5196 29.8946 37.7071 29.7071C37.8946 29.5196 38 29.2652 38 29C38 28.7348 37.8946 28.4804 37.7071 28.2929C37.5196 28.1054 37.2652 28 37 28Z"/>
</mask>
<path d="M37 28H31V22C31 21.7348 30.8946 21.4804 30.7071 21.2929C30.5196 21.1054 30.2652 21 30 21C29.7348 21 29.4804 21.1054 29.2929 21.2929C29.1054 21.4804 29 21.7348 29 22V28H23C22.7348 28 22.4804 28.1054 22.2929 28.2929C22.1054 28.4804 22 28.7348 22 29C22 29.2652 22.1054 29.5196 22.2929 29.7071C22.4804 29.8946 22.7348 30 23 30H29V36C29 36.2652 29.1054 36.5196 29.2929 36.7071C29.4804 36.8946 29.7348 37 30 37C30.2652 37 30.5196 36.8946 30.7071 36.7071C30.8946 36.5196 31 36.2652 31 36V30H37C37.2652 30 37.5196 29.8946 37.7071 29.7071C37.8946 29.5196 38 29.2652 38 29C38 28.7348 37.8946 28.4804 37.7071 28.2929C37.5196 28.1054 37.2652 28 37 28Z" fill="#666666"/>
<path d="M31 28H29V30H31V28ZM30 21V19V21ZM29 28V30H31V28H29ZM22 29H20H22ZM29 30H31V28H29V30ZM31 30V28H29V30H31ZM37 26H31V30H37V26ZM33 28V22H29V28H33ZM33 22C33 21.2043 32.6839 20.4413 32.1213 19.8787L29.2929 22.7071C29.1054 22.5196 29 22.2652 29 22H33ZM32.1213 19.8787C31.5587 19.3161 30.7957 19 30 19V23C29.7348 23 29.4804 22.8946 29.2929 22.7071L32.1213 19.8787ZM30 19C29.2043 19 28.4413 19.3161 27.8787 19.8787L30.7071 22.7071C30.5196 22.8946 30.2652 23 30 23V19ZM27.8787 19.8787C27.3161 20.4413 27 21.2043 27 22H31C31 22.2652 30.8946 22.5196 30.7071 22.7071L27.8787 19.8787ZM27 22V28H31V22H27ZM29 26H23V30H29V26ZM23 26C22.2043 26 21.4413 26.3161 20.8787 26.8787L23.7071 29.7071C23.5196 29.8946 23.2652 30 23 30V26ZM20.8787 26.8787C20.3161 27.4413 20 28.2043 20 29H24C24 29.2652 23.8946 29.5196 23.7071 29.7071L20.8787 26.8787ZM20 29C20 29.7957 20.3161 30.5587 20.8787 31.1213L23.7071 28.2929C23.8946 28.4804 24 28.7348 24 29H20ZM20.8787 31.1213C21.4413 31.6839 22.2043 32 23 32V28C23.2652 28 23.5196 28.1054 23.7071 28.2929L20.8787 31.1213ZM23 32H29V28H23V32ZM27 30V36H31V30H27ZM27 36C27 36.7956 27.3161 37.5587 27.8787 38.1213L30.7071 35.2929C30.8946 35.4804 31 35.7348 31 36H27ZM27.8787 38.1213C28.4413 38.6839 29.2044 39 30 39V35C30.2652 35 30.5196 35.1054 30.7071 35.2929L27.8787 38.1213ZM30 39C30.7956 39 31.5587 38.6839 32.1213 38.1213L29.2929 35.2929C29.4804 35.1054 29.7348 35 30 35V39ZM32.1213 38.1213C32.6839 37.5587 33 36.7956 33 36H29C29 35.7348 29.1054 35.4804 29.2929 35.2929L32.1213 38.1213ZM33 36V30H29V36H33ZM31 32H37V28H31V32ZM37 32C37.7956 32 38.5587 31.6839 39.1213 31.1213L36.2929 28.2929C36.4804 28.1054 36.7348 28 37 28V32ZM39.1213 31.1213C39.6839 30.5587 40 29.7956 40 29H36C36 28.7348 36.1054 28.4804 36.2929 28.2929L39.1213 31.1213ZM40 29C40 28.2044 39.6839 27.4413 39.1213 26.8787L36.2929 29.7071C36.1054 29.5196 36 29.2652 36 29H40ZM39.1213 26.8787C38.5587 26.3161 37.7956 26 37 26V30C36.7348 30 36.4804 29.8946 36.2929 29.7071L39.1213 26.8787Z" fill="#666666" mask="url(#path-2-inside-1_8_4348)"/>
</svg>
