<svg width="24" height="24" viewBox="0 0 24 24" fill="none" xmlns="http://www.w3.org/2000/svg">
<path d="M21 4.34034C20.85 4.22117 20.6744 4.13839 20.487 4.09849C20.2996 4.05858 20.1056 4.06264 19.92 4.11034L13 5.89034V20.1603L20.56 18.2203C20.8304 18.1511 21.0699 17.9934 21.2402 17.7723C21.4106 17.5512 21.502 17.2794 21.5 17.0003V5.32034C21.4969 5.12967 21.4503 4.94223 21.3636 4.77237C21.277 4.60251 21.1526 4.45473 21 4.34034Z" fill="#666666"/>
<path d="M11.0001 5.88988L4.06011 4.10988C3.87741 4.06758 3.6876 4.06626 3.50432 4.10603C3.32105 4.1458 3.14885 4.22566 3.00011 4.33988C2.84854 4.45839 2.72637 4.61028 2.64312 4.78373C2.55986 4.95718 2.51777 5.1475 2.52011 5.33988V16.9999C2.52032 17.2773 2.6128 17.5467 2.78298 17.7658C2.95316 17.9849 3.19138 18.1411 3.46011 18.2099L11.0001 20.1599V5.88988Z" fill="#666666"/>
</svg>
