<svg width="55" height="55" viewBox="0 0 55 55" fill="none" xmlns="http://www.w3.org/2000/svg">
<rect width="55" height="55" rx="26.5" fill="#EEEEEE"/>
<path d="M35.54 21.0801C34.5374 20.0846 33.346 19.2993 32.0358 18.7704C30.7255 18.2415 29.3229 17.9796 27.91 18.0001C25.2579 17.9935 22.7117 19.0407 20.8317 20.9114C18.9516 22.7821 17.8917 25.323 17.885 27.9751C17.8784 30.6273 18.9256 33.1735 20.7963 35.0535C22.667 36.9336 25.2079 37.9935 27.86 38.0001C28.4315 38.0099 28.9901 37.8295 29.448 37.4875C29.9059 37.1454 30.2373 36.6609 30.39 36.1101C30.4874 35.7124 30.4864 35.2969 30.3871 34.8996C30.2878 34.5024 30.0932 34.1353 29.82 33.8301C29.7569 33.7583 29.7157 33.6698 29.7013 33.5752C29.6869 33.4806 29.7 33.3839 29.739 33.2965C29.7779 33.2092 29.8411 33.1348 29.9211 33.0822C30.001 33.0297 30.0944 33.0012 30.19 33.0001H31.84C33.393 33.0074 34.8912 32.4269 36.0338 31.3752C37.1764 30.3234 37.8789 28.8784 38 27.3301C38.0372 26.1758 37.8382 25.0259 37.4152 23.9512C36.9922 22.8765 36.3541 21.8995 35.54 21.0801ZM31.88 31.0001H30.23C29.7482 30.9974 29.2759 31.1346 28.8704 31.395C28.4649 31.6554 28.1437 32.0278 27.9458 32.4672C27.7478 32.9065 27.6816 33.3938 27.7551 33.8701C27.8286 34.3463 28.0388 34.791 28.36 35.1501C28.4226 35.2133 28.4668 35.2922 28.4879 35.3785C28.5091 35.4648 28.5064 35.5553 28.48 35.6401C28.43 35.8501 28.2 35.9801 27.89 36.0001C26.7544 35.9856 25.6348 35.7294 24.6058 35.2486C23.5769 34.7677 22.6621 34.0733 21.9223 33.2115C21.1825 32.3497 20.6347 31.3403 20.3154 30.2503C19.996 29.1604 19.9124 28.0149 20.07 26.8901C20.3552 25.0001 21.2996 23.2718 22.7362 22.0109C24.1728 20.75 26.009 20.0377 27.92 20.0001H28C29.1309 19.9853 30.2532 20.1972 31.3009 20.6231C32.3486 21.049 33.3003 21.6805 34.1 22.4801C34.724 23.1045 35.2143 23.8495 35.541 24.6696C35.8676 25.4897 36.0238 26.3677 36 27.2501C35.8965 28.2732 35.4186 29.2219 34.6581 29.9141C33.8977 30.6063 32.9083 30.993 31.88 31.0001Z" fill="#666666"/>
<path d="M28 24C28.8284 24 29.5 23.3284 29.5 22.5C29.5 21.6716 28.8284 21 28 21C27.1716 21 26.5 21.6716 26.5 22.5C26.5 23.3284 27.1716 24 28 24Z" fill="#666666"/>
<path d="M31.2499 23.2002C30.9931 23.3485 30.786 23.5697 30.6549 23.8357C30.5237 24.1017 30.4744 24.4007 30.5131 24.6947C30.5518 24.9888 30.6768 25.2648 30.8723 25.4878C31.0678 25.7109 31.3251 25.8709 31.6116 25.9478C31.898 26.0246 32.2008 26.0149 32.4818 25.9196C32.7627 25.8244 33.009 25.6481 33.1897 25.4129C33.3704 25.1777 33.4773 24.8942 33.497 24.5982C33.5166 24.3023 33.448 24.0072 33.2999 23.7502C33.2015 23.5794 33.0704 23.4296 32.9141 23.3095C32.7578 23.1894 32.5793 23.1013 32.3889 23.0503C32.1985 22.9992 32 22.9861 31.8045 23.0118C31.6091 23.0376 31.4206 23.1016 31.2499 23.2002Z" fill="#666666"/>
<path d="M24.7501 23.2003C24.4931 23.0522 24.198 22.9837 23.902 23.0033C23.6061 23.0229 23.3226 23.1298 23.0874 23.3105C22.8522 23.4912 22.6758 23.7376 22.5806 24.0185C22.4854 24.2994 22.4756 24.6022 22.5525 24.8887C22.6293 25.1752 22.7894 25.4324 23.0124 25.6279C23.2354 25.8235 23.5114 25.9485 23.8055 25.9872C24.0996 26.0259 24.3985 25.9765 24.6645 25.8454C24.9306 25.7142 25.1517 25.5071 25.3001 25.2503C25.3987 25.0796 25.4627 24.8912 25.4884 24.6957C25.5141 24.5003 25.5011 24.3017 25.45 24.1113C25.3989 23.9209 25.3108 23.7425 25.1907 23.5861C25.0706 23.4298 24.9209 23.2987 24.7501 23.2003Z" fill="#666666"/>
<path d="M22.1601 27.2598C21.9141 27.4259 21.7229 27.6613 21.6107 27.9362C21.4985 28.211 21.4705 28.513 21.53 28.8038C21.5895 29.0946 21.7341 29.3613 21.9452 29.5699C22.1564 29.7786 22.4247 29.9199 22.7162 29.9759C23.0078 30.032 23.3094 30.0003 23.5829 29.8849C23.8564 29.7694 24.0894 29.5754 24.2526 29.3274C24.4158 29.0794 24.5017 28.7886 24.4995 28.4917C24.4972 28.1948 24.407 27.9053 24.2401 27.6598C24.1305 27.4961 23.9895 27.3558 23.8253 27.247C23.6611 27.1382 23.477 27.063 23.2836 27.0258C23.0901 26.9886 22.8913 26.9902 22.6984 27.0303C22.5056 27.0705 22.3226 27.1485 22.1601 27.2598Z" fill="#666666"/>
</svg>
