<svg width="24" height="24" viewBox="0 0 24 24" fill="none" xmlns="http://www.w3.org/2000/svg">
<path d="M19.0701 4.92953C17.4293 3.27803 15.2638 2.25075 12.9467 2.02478C10.6297 1.7988 8.30647 2.38831 6.3775 3.69167C4.44854 4.99502 3.03475 6.93054 2.37988 9.16455C1.72501 11.3985 1.87009 13.791 2.79012 15.9295C2.88601 16.1283 2.91747 16.352 2.88012 16.5695L2.00012 20.7995C1.96621 20.9617 1.97314 21.1298 2.02027 21.2886C2.06739 21.4475 2.15325 21.5921 2.27012 21.7095C2.36592 21.8046 2.47999 21.8794 2.60545 21.9292C2.73091 21.9791 2.86516 22.003 3.00012 21.9995H3.20012L7.48012 21.1395C7.69765 21.1134 7.91824 21.1444 8.12012 21.2295C10.2586 22.1496 12.6511 22.2946 14.8851 21.6398C17.1191 20.9849 19.0546 19.5711 20.358 17.6421C21.6613 15.7132 22.2508 13.3899 22.0249 11.0729C21.7989 8.7559 20.7716 6.59032 19.1201 4.94953L19.0701 4.92953ZM8.00012 12.9995C7.80234 12.9995 7.609 12.9409 7.44455 12.831C7.2801 12.7211 7.15193 12.5649 7.07624 12.3822C7.00055 12.1995 6.98075 11.9984 7.01933 11.8044C7.05792 11.6105 7.15316 11.4323 7.29301 11.2924C7.43286 11.1526 7.61105 11.0573 7.80503 11.0187C7.99901 10.9802 8.20008 11 8.3828 11.0757C8.56553 11.1513 8.72171 11.2795 8.83159 11.444C8.94147 11.6084 9.00012 11.8018 9.00012 11.9995C9.00012 12.2648 8.89476 12.5191 8.70722 12.7066C8.51969 12.8942 8.26533 12.9995 8.00012 12.9995ZM12.0001 12.9995C11.8023 12.9995 11.609 12.9409 11.4445 12.831C11.2801 12.7211 11.1519 12.5649 11.0762 12.3822C11.0006 12.1995 10.9807 11.9984 11.0193 11.8044C11.0579 11.6105 11.1532 11.4323 11.293 11.2924C11.4329 11.1526 11.611 11.0573 11.805 11.0187C11.999 10.9802 12.2001 11 12.3828 11.0757C12.5655 11.1513 12.7217 11.2795 12.8316 11.444C12.9415 11.6084 13.0001 11.8018 13.0001 11.9995C13.0001 12.2648 12.8948 12.5191 12.7072 12.7066C12.5197 12.8942 12.2653 12.9995 12.0001 12.9995ZM16.0001 12.9995C15.8023 12.9995 15.609 12.9409 15.4445 12.831C15.2801 12.7211 15.1519 12.5649 15.0762 12.3822C15.0006 12.1995 14.9807 11.9984 15.0193 11.8044C15.0579 11.6105 15.1532 11.4323 15.293 11.2924C15.4329 11.1526 15.611 11.0573 15.805 11.0187C15.999 10.9802 16.2001 11 16.3828 11.0757C16.5655 11.1513 16.7217 11.2795 16.8316 11.444C16.9415 11.6084 17.0001 11.8018 17.0001 11.9995C17.0001 12.2648 16.8948 12.5191 16.7072 12.7066C16.5197 12.8942 16.2653 12.9995 16.0001 12.9995Z" fill="#666666"/>
</svg>
