<svg width="55" height="55" viewBox="0 0 55 55" fill="none" xmlns="http://www.w3.org/2000/svg">
<rect width="55" height="55" rx="26.5" fill="#EEEEEE"/>
<path d="M28.3 36.9997H28.2C26.8285 36.9892 25.4729 36.7052 24.2125 36.1644C22.9522 35.6235 21.8124 34.8366 20.86 33.8497C19.0938 31.961 18.0899 29.485 18.0418 26.8996C17.9938 24.3142 18.9052 21.8027 20.6 19.8497C21.6919 18.626 23.0645 17.6858 24.6 17.1097C24.7791 17.0407 24.9744 17.0248 25.1623 17.0638C25.3503 17.1028 25.523 17.1951 25.66 17.3297C25.7868 17.459 25.8761 17.6203 25.9184 17.7965C25.9606 17.9726 25.9543 18.1569 25.9 18.3297C25.3519 19.8306 25.2434 21.4567 25.587 23.0172C25.9306 24.5777 26.7122 26.0078 27.84 27.1397C28.9783 28.264 30.4118 29.043 31.9745 29.3863C33.5372 29.7296 35.1652 29.6233 36.67 29.0797C36.8491 29.0166 37.0424 29.0059 37.2274 29.0487C37.4124 29.0915 37.5814 29.1861 37.7146 29.3214C37.8478 29.4567 37.9398 29.6271 37.9797 29.8128C38.0196 29.9984 38.0058 30.1916 37.94 30.3697C37.4291 31.7334 36.6311 32.9714 35.6 33.9997C34.6408 34.956 33.5021 35.7133 32.2494 36.2282C30.9966 36.743 29.6544 37.0052 28.3 36.9997ZM23.46 19.9197C22.9577 20.272 22.4979 20.6814 22.09 21.1397C20.7145 22.7158 19.9734 24.7466 20.0103 26.8382C20.0473 28.9298 20.8597 30.9331 22.29 32.4597C23.0585 33.2579 23.9792 33.8939 24.9978 34.3302C26.0163 34.7664 27.112 34.9941 28.22 34.9997H28.3C29.6262 34.9989 30.9331 34.6819 32.1122 34.0749C33.2914 33.468 34.3088 32.5886 35.08 31.5097C33.5083 31.7133 31.9109 31.554 30.4104 31.0441C28.9099 30.5341 27.5463 29.687 26.4242 28.5678C25.3021 27.4487 24.4515 26.0872 23.9377 24.588C23.4238 23.0889 23.2604 21.4919 23.46 19.9197Z" fill="#666666"/>
</svg>
