<svg width="16" height="19" viewBox="0 0 16 19" fill="none" xmlns="http://www.w3.org/2000/svg">
<path d="M8.00169 18.0989C7.01398 18.0905 6.03794 17.8844 5.13113 17.4928C4.22431 17.1012 3.40507 16.5321 2.72169 15.8189C1.33422 14.3633 0.568577 12.4244 0.587248 10.4136C0.605918 8.40279 1.40744 6.47841 2.82169 5.04887L7.46169 0.398874C7.55211 0.301534 7.66214 0.224467 7.78453 0.172756C7.90691 0.121044 8.03886 0.0958638 8.17169 0.0988742C8.30471 0.100723 8.43602 0.129094 8.55793 0.182324C8.67984 0.235555 8.78991 0.312575 8.88169 0.408874L13.4417 5.12887C14.8305 6.58313 15.5979 8.52133 15.5811 10.5321C15.5643 12.5429 14.7646 14.468 13.3517 15.8989C12.6558 16.6093 11.8226 17.1707 10.9029 17.549C9.98314 17.9272 8.99605 18.1143 8.00169 18.0989Z" fill="#B51533"/>
</svg>
